<?xml version="1.0" encoding="UTF-8" standalone="no"?>
<svg
   xmlns:dc="http://purl.org/dc/elements/1.1/"
   xmlns:cc="http://creativecommons.org/ns#"
   xmlns:rdf="http://www.w3.org/1999/02/22-rdf-syntax-ns#"
   xmlns:svg="http://www.w3.org/2000/svg"
   xmlns="http://www.w3.org/2000/svg"
   xmlns:xlink="http://www.w3.org/1999/xlink"
   xmlns:sodipodi="http://sodipodi.sourceforge.net/DTD/sodipodi-0.dtd"
   xmlns:inkscape="http://www.inkscape.org/namespaces/inkscape"
   id="svg11300"
   viewBox="0 0 52 52"
   version="1.1"
   inkscape:version="0.47 r22583"
   width="100%"
   height="100%"
   sodipodi:docname="icon.svg"
   inkscape:export-filename="/crypto/var/www/sites/jlb/ffos/web/xml2contacts.v0.5/icon-32.png"
   inkscape:export-xdpi="55.380001"
   inkscape:export-ydpi="55.380001">
  <sodipodi:namedview
     pagecolor="#ffffff"
     bordercolor="#666666"
     borderopacity="1"
     objecttolerance="10"
     gridtolerance="10"
     guidetolerance="10"
     inkscape:pageopacity="0"
     inkscape:pageshadow="2"
     inkscape:window-width="980"
     inkscape:window-height="855"
     id="namedview53"
     showgrid="false"
     inkscape:zoom="9.8333333"
     inkscape:cx="20.506953"
     inkscape:cy="24.078726"
     inkscape:window-x="27"
     inkscape:window-y="25"
     inkscape:window-maximized="0"
     inkscape:current-layer="svg11300" />
  <defs
     id="defs3">
    <inkscape:perspective
       sodipodi:type="inkscape:persp3d"
       inkscape:vp_x="0 : 24 : 1"
       inkscape:vp_y="0 : 1000 : 0"
       inkscape:vp_z="48 : 24 : 1"
       inkscape:persp3d-origin="24 : 16 : 1"
       id="perspective60" />
    <linearGradient
       id="linearGradient3041">
      <stop
         id="stop3043"
         offset="0" />
      <stop
         id="stop3045"
         stop-opacity="0"
         offset="1" />
    </linearGradient>
    <radialGradient
       id="radialGradient3047"
       xlink:href="#linearGradient3041"
       gradientUnits="userSpaceOnUse"
       cy="39.125"
       cx="24.812"
       gradientTransform="matrix(1,0,0,0.37456,0,24.47)"
       r="17.688" />
    <linearGradient
       id="linearGradient3055"
       x1="19.648001"
       gradientUnits="userSpaceOnUse"
       y1="42.254002"
       gradientTransform="matrix(0.87827,0,0,0.87827,2.537,4.9677)"
       x2="20.631001"
       y2="6.7758002">
      <stop
         id="stop3051"
         stop-color="#b6b6b6"
         offset="0" />
      <stop
         id="stop2262"
         stop-color="#f2f2f2"
         offset=".5" />
      <stop
         id="stop2264"
         stop-color="#fafafa"
         offset=".67613" />
      <stop
         id="stop2268"
         stop-color="#d8d8d8"
         offset=".84052" />
      <stop
         id="stop2266"
         stop-color="#f2f2f2"
         offset=".875" />
      <stop
         id="stop3053"
         stop-color="#dbdbdb"
         offset="1" />
    </linearGradient>
    <linearGradient
       id="linearGradient3067"
       x1="50.153"
       gradientUnits="userSpaceOnUse"
       y1="-3.6324"
       gradientTransform="matrix(0.87827,0,0,0.87827,5.3283,1.6502)"
       x2="25.291"
       y2="-4.3003001">
      <stop
         id="stop3063"
         stop-color="#fff"
         offset="0" />
      <stop
         id="stop3065"
         offset="1" />
    </linearGradient>
    <linearGradient
       id="linearGradient3083"
       x1="38.228001"
       gradientUnits="userSpaceOnUse"
       y1="13.603"
       gradientTransform="matrix(0.87827,0,0,0.87827,2.8475,5.5887)"
       x2="37.535"
       y2="6.6286001">
      <stop
         id="stop3079"
         stop-color="#98a0a9"
         offset="0" />
      <stop
         id="stop3081"
         stop-color="#c3d0dd"
         offset="1" />
    </linearGradient>
    <linearGradient
       id="linearGradient3093"
       x1="9.7503004"
       gradientUnits="userSpaceOnUse"
       y1="32.284"
       gradientTransform="matrix(0.87827,0,0,0.87827,2.537,4.9677)"
       x2="16.915001"
       y2="39.443001">
      <stop
         id="stop3089"
         stop-color="#3465a4"
         offset="0" />
      <stop
         id="stop3095"
         stop-color="#9fbce1"
         offset="0" />
      <stop
         id="stop2242"
         stop-color="#6b95ca"
         offset="0" />
      <stop
         id="stop2244"
         stop-color="#3d6aa5"
         offset=".75" />
      <stop
         id="stop3091"
         stop-color="#386eb4"
         offset="1" />
    </linearGradient>
    <linearGradient
       id="linearGradient2263"
       x1="12.005"
       gradientUnits="userSpaceOnUse"
       y1="35.688"
       gradientTransform="matrix(1.0073,-0.026365,0.026365,1.0073,1.5934,0.079191)"
       x2="10.651"
       y2="33.195">
      <stop
         id="stop2259"
         stop-color="#fff"
         offset="0" />
      <stop
         id="stop2261"
         stop-color="#fff"
         stop-opacity="0"
         offset="1" />
    </linearGradient>
    <linearGradient
       id="linearGradient2271"
       x1="14.018"
       gradientUnits="userSpaceOnUse"
       y1="36.943001"
       gradientTransform="matrix(0.8781,-0.017324,0.017324,0.8781,2.1637,4.0679)"
       x2="15.416"
       y2="38.268002">
      <stop
         id="stop2267"
         offset="0" />
      <stop
         id="stop2269"
         stop-opacity="0"
         offset="1" />
    </linearGradient>
    <linearGradient
       id="linearGradient2256"
       y2="9.6569004"
       gradientUnits="userSpaceOnUse"
       y1="19.822001"
       x2="40.859001"
       x1="31.177">
      <stop
         id="stop2252"
         stop-color="#fff"
         offset="0" />
      <stop
         id="stop2254"
         stop-color="#fff"
         stop-opacity="0"
         offset="1" />
    </linearGradient>
    <radialGradient
       id="radialGradient2260"
       xlink:href="#linearGradient3041"
       gradientUnits="userSpaceOnUse"
       cy="39.125"
       cx="24.812"
       gradientTransform="matrix(1,0,0,0.37456,0,24.47)"
       r="17.688" />
    <linearGradient
       inkscape:collect="always"
       xlink:href="#linearGradient2271"
       id="linearGradient3031"
       gradientUnits="userSpaceOnUse"
       gradientTransform="matrix(0.8781,-0.017324,0.017324,0.8781,4.1667192,4.956884)"
       x1="14.018"
       y1="36.943001"
       x2="15.416"
       y2="38.268002" />
    <linearGradient
       inkscape:collect="always"
       xlink:href="#linearGradient2263"
       id="linearGradient3035"
       gradientUnits="userSpaceOnUse"
       gradientTransform="matrix(1.0073,-0.026365,0.026365,1.0073,3.5964192,0.968175)"
       x1="12.005"
       y1="35.688"
       x2="10.651"
       y2="33.195" />
    <linearGradient
       inkscape:collect="always"
       xlink:href="#linearGradient2256"
       id="linearGradient3043"
       gradientUnits="userSpaceOnUse"
       x1="31.177"
       y1="19.822001"
       x2="40.859001"
       y2="9.6569004"
       gradientTransform="translate(2.0030192,0.888984)" />
    <linearGradient
       inkscape:collect="always"
       xlink:href="#linearGradient3083"
       id="linearGradient3046"
       gradientUnits="userSpaceOnUse"
       gradientTransform="matrix(0.87827,0,0,0.87827,4.8505192,6.477684)"
       x1="38.228001"
       y1="13.603"
       x2="37.535"
       y2="6.6286001" />
    <linearGradient
       inkscape:collect="always"
       xlink:href="#linearGradient3067"
       id="linearGradient3049"
       gradientUnits="userSpaceOnUse"
       gradientTransform="matrix(0.87827,0,0,0.87827,7.3629388,0.83618456)"
       x1="50.153"
       y1="-3.6324"
       x2="25.291"
       y2="-4.3003001" />
    <linearGradient
       inkscape:collect="always"
       xlink:href="#linearGradient3055"
       id="linearGradient3053"
       gradientUnits="userSpaceOnUse"
       gradientTransform="matrix(0.87827,0,0,0.87827,4.5400192,5.856684)"
       x1="19.648001"
       y1="42.254002"
       x2="20.631001"
       y2="6.7758002" />
    <radialGradient
       inkscape:collect="always"
       xlink:href="#linearGradient3041"
       id="radialGradient3056"
       gradientUnits="userSpaceOnUse"
       gradientTransform="matrix(0.83607,0,0,0.25673841,-5.9565808,33.379701)"
       cx="24.812"
       cy="39.125"
       r="17.688" />
    <radialGradient
       inkscape:collect="always"
       xlink:href="#linearGradient3041"
       id="radialGradient3059"
       gradientUnits="userSpaceOnUse"
       gradientTransform="matrix(0.75112,0,0,0.21675787,19.044019,34.412773)"
       cx="24.812"
       cy="39.125"
       r="17.688" />
  </defs>
  <path
     inkscape:connector-curvature="0"
     d="m 50.966619,42.893621 a 13.285811,3.8338875 0 1 1 -26.57087,0 13.285811,3.8338875 0 1 1 26.57087,0 z"
     style="opacity:0.19886002;color:#000000;fill:url(#radialGradient3059)"
     id="path2258" />
  <path
     inkscape:connector-curvature="0"
     d="m 29.576394,43.424824 a 14.788406,4.54104 0 1 1 -29.5759761,0 14.788406,4.54104 0 1 1 29.5759761,0 z"
     style="opacity:0.3125;color:#000000;fill:url(#radialGradient3056)"
     id="path3039" />
  <path
     inkscape:connector-curvature="0"
     d="m 19.910019,22.104984 18.992,19.431 c 0.769,0.879 3.204,1.557 4.831,0 1.571,-1.503 1.207,-3.622 -0.33,-5.159 l -18.224,-19.542 c 2.25,-6.2499 -2.304,-11.5 -8.179,-10.374 l -1.262,1.1522 3.952,3.7328 0.22,3.293 -2.951,2.694 -3.527,-0.388 -3.6224,-3.403 -1.2701,1.254 c -0.5907999,5.642 5.3075,10.684 11.37,7.309 z"
     style="color:#000000;fill:url(#linearGradient3053);stroke:#888a85"
     id="path2140" />
  <path
     inkscape:connector-curvature="0"
     d="m 20.120019,20.828984 19.203,20.028 c 0.595,0.68 2.48,1.205 3.74,0 1.216,-1.164 0.935,-2.805 -0.255,-3.995 l -18.492,-19.621 c 1.5,-6.4998 -1.859,-10.004 -6.859,-9.8795 l -0.27,0.2734 3.603,3.2363 0.13,4.1818 -3.614,3.298 -4.242,-0.458 -3.1764,-2.991 -0.3527,0.43 c -0.3125,5.969 6.4921,8.685 10.585,5.497 z"
     style="opacity:0.42613998;color:#000000;fill:none;stroke:#ffffff"
     id="path3057" />
  <rect
     height="2.0555"
     x="30.219639"
     y="-3.4324164"
     width="23.268"
     transform="matrix(0.69794047,0.71615578,-0.71615578,0.69794047,0,0)"
     ry="0.88388002"
     rx="0.88388002"
     style="opacity:0.17045001;color:#000000;fill:none;stroke:url(#linearGradient3049);stroke-width:1"
     id="rect3059" />
  <path
     inkscape:connector-curvature="0"
     d="m 24.502019,31.013984 c 0.833,-0.714 13.284,-13.448 13.284,-13.448 l 3.074,-0.22 4.83,-6.6965 -4.024,-3.5852 -6.258,5.3797 v 3.074 l -12.735,13.229 c -0.604,0.603 1.06,2.926 1.829,2.267 z"
     style="color:#000000;fill:url(#linearGradient3046);stroke:#878f9d"
     id="path2144" />
  <path
     inkscape:connector-curvature="0"
     d="m 24.405019,29.973984 c 0.647,-0.554 13.024,-13.229 13.024,-13.229 l 2.929,-0.248 4.214,-5.6624 -2.89,-2.549 -5.476,4.7174 0.155,2.851 -12.676,13.292 c -0.469,0.469 0.124,1.34 0.72,0.828 z"
     style="opacity:0.53977003;color:#000000;fill:none;stroke:url(#linearGradient3043)"
     id="path3085" />
  <path
     inkscape:connector-curvature="0"
     d="m 10.468319,44.500984 c 1.3166,1.465 4.9737,2.128 6.5957,-0.71 0.707,-1.238 2.094,-4.703 8.281,-10.272 1.039,-0.934 2.14,-3.071 1.207,-4.223 l -2.416,-2.416 c -0.988,-1.098 -3.734,-0.585 -4.861,0.951 -3.359,4.596 -8.8459,8.255 -10.083,8.697 -2.3681999,0.846 -2.1016999,4.336 -0.5351,5.996 l 1.8114,1.977 z"
     style="color:#000000;fill:#eed600;fill-opacity:0.99607843;stroke:#caa90a;stroke-opacity:0.8745098"
     id="path2142" />
  <path
     inkscape:connector-curvature="0"
     d="m 42.415396,38.901609 a 1.2076212,1.2076212 0 0 1 -2.415242,0 1.2076212,1.2076212 0 1 1 2.415242,0 z"
     style="color:#000000;fill:#ffffff;stroke:#a1a1a1;stroke-width:0.99999821"
     id="path2146" />
  <path
     inkscape:connector-curvature="0"
     d="m 23.015567,28.239371 a 1.0092017,1.0092017 0 1 1 -2.01806,0 1.0092017,1.0092017 0 1 1 2.01806,0 z"
     style="opacity:0.60227003;color:#000000;fill:#ffffff"
     id="path3101" />
  <path
     inkscape:connector-curvature="0"
     d="m 20.682019,30.513984 c 0,0 -7.17,7.299 -10.529,8.537"
     style="color:#000000;fill:none;stroke:url(#linearGradient3035);stroke-width:2.29450011;stroke-linecap:round;stroke-linejoin:round"
     id="path3103" />
  <path
     inkscape:connector-curvature="0"
     d="m 10.809019,43.375984 c 1.441,1.745 4.6,2.161 5.591,-0.371 0.681,-1.739 3.334,-5.666 8.198,-10.043 0.817,-0.735 1.682,-2.415 0.948,-3.321 l -1.898,-1.898 c -0.777,-0.864 -2.936,-0.461 -3.822,0.747 -2.64,3.613 -8.4832,8.34 -9.8956,8.806 -2.1867998,0.721 -1.777,3.221 -0.5454,4.526 l 1.424,1.554 z"
     style="opacity:0.19886002;color:#000000;fill:none;stroke:#ffffff"
     id="path2270" />
  <path
     inkscape:connector-curvature="0"
     d="m 22.828019,32.149984 c 0,0 -7.323,6.617 -8.914,10.86"
     style="opacity:0.27841001;color:#000000;fill:none;stroke:url(#linearGradient3031);stroke-width:2.29450011;stroke-linecap:round;stroke-linejoin:round"
     id="path2247" />
  <metadata
     id="metadata51">
    <rdf:RDF>
      <cc:Work>
        <dc:format>image/svg+xml</dc:format>
        <dc:type
           rdf:resource="http://purl.org/dc/dcmitype/StillImage" />
        <cc:license
           rdf:resource="http://creativecommons.org/licenses/publicdomain/" />
        <dc:publisher>
          <cc:Agent
             rdf:about="http://openclipart.org/">
            <dc:title>Openclipart</dc:title>
          </cc:Agent>
        </dc:publisher>
        <dc:title>tango preferences system</dc:title>
        <dc:date>2010-03-29T09:07:18</dc:date>
        <dc:description>&quot;System preferences&quot; icon from &lt;a href=&quot;http://tango.freedesktop.org/Tango_Desktop_Project&quot;&gt; Tango Project &lt;/a&gt; 
\n&lt;br&gt;&lt;br&gt;
\nSince version 0.8.90 Tango Project icons are Public Domain: &lt;a href=&quot;http://tango.freedesktop.org/Frequently_Asked_Questions#Terms_of_Use.3F&quot;&gt; Tango Project FAQ &lt;/a&gt;</dc:description>
        <dc:source>http://openclipart.org/detail/35431/tango-preferences-system-by-warszawianka</dc:source>
        <dc:creator>
          <cc:Agent>
            <dc:title>warszawianka</dc:title>
          </cc:Agent>
        </dc:creator>
        <dc:subject>
          <rdf:Bag>
            <rdf:li>clip art</rdf:li>
            <rdf:li>clipart</rdf:li>
            <rdf:li>externalsource</rdf:li>
            <rdf:li>icon</rdf:li>
            <rdf:li>preferences</rdf:li>
            <rdf:li>screwdriver</rdf:li>
            <rdf:li>settings</rdf:li>
            <rdf:li>spanner</rdf:li>
            <rdf:li>tango</rdf:li>
            <rdf:li>tool</rdf:li>
          </rdf:Bag>
        </dc:subject>
      </cc:Work>
      <cc:License
         rdf:about="http://creativecommons.org/licenses/publicdomain/">
        <cc:permits
           rdf:resource="http://creativecommons.org/ns#Reproduction" />
        <cc:permits
           rdf:resource="http://creativecommons.org/ns#Distribution" />
        <cc:permits
           rdf:resource="http://creativecommons.org/ns#DerivativeWorks" />
      </cc:License>
    </rdf:RDF>
  </metadata>
</svg>
